<svg width="147" height="33" viewBox="0 0 147 33" fill="none" xmlns="http://www.w3.org/2000/svg">
<path d="M34.3959 17.9598C34.207 18.7014 34.4909 19.3326 34.8223 19.8654C35.7119 21.2956 36.6624 22.6902 37.6507 24.0529C38.1182 24.6976 38.9267 24.85 39.6509 24.9175C41.5149 25.0912 43.387 25.2195 45.258 25.2572C46.5399 25.283 47.825 25.1176 49.1097 25.0583C49.377 25.046 49.6478 25.13 49.9181 25.1599C50.4654 25.2206 50.8148 25.5436 50.8766 26.0698C50.9862 27.0049 51.1191 27.9541 51.0656 28.887C51.0166 29.7422 50.1742 30.3445 49.2024 30.3386C46.6682 30.3232 44.1315 30.3302 41.6011 30.2129C39.8349 30.131 38.069 29.9158 36.3181 29.656C34.4548 29.3796 33.0458 28.3442 32.1497 26.6606C31.2086 24.8925 30.3214 23.095 29.3837 21.3249C29.0164 20.6317 28.6683 19.9162 27.9532 19.4765C27.0215 18.9035 26.2056 19.293 26.0409 20.3422C25.7966 21.898 26.1556 23.3883 26.3533 24.9063C26.5184 26.1741 26.5815 27.462 26.5911 28.7417C26.5979 29.6623 26.1024 30.2137 25.116 30.3375C24.0947 30.4656 23.0443 30.5035 22.0202 30.4168C21.1471 30.3428 20.4322 29.3874 20.3858 28.3821C20.3355 27.2923 20.3997 26.1975 20.3684 25.1062C20.3145 23.2246 20.2425 21.3431 20.1456 19.4633C20.0587 17.7762 19.9039 16.0925 19.8231 14.4051C19.7232 12.319 19.6501 10.231 19.6012 8.14293C19.5675 6.70473 18.9891 6.11669 17.5887 6.19094C16.641 6.24119 15.7762 6.01009 15.2821 5.1366C14.7662 4.22438 15.085 2.83618 15.7571 2.04112C16.3854 1.29792 17.2375 1.2176 18.0668 1.06373C19.864 0.730247 21.6856 0.630662 23.5062 0.729267C25.1862 0.82026 26.8626 0.995904 28.5371 1.1686C29.697 1.28823 30.8516 1.46207 32.0076 1.61897C33.774 1.85873 35.0869 2.76796 35.9313 4.36086C36.5791 5.58268 36.89 6.89748 36.961 8.2727C37.0128 9.278 37.0999 10.2873 37.0592 11.2901C37.0097 12.5085 36.8893 13.7291 36.71 14.9352C36.5851 15.7755 36.0578 16.4101 35.3155 16.816C34.8569 17.0667 34.5288 17.3974 34.3959 17.9598ZM25.0393 9.7571C25.0144 10.2165 24.9212 10.6852 24.9805 11.1332C25.0676 11.7905 25.3312 12.3931 26.0929 12.5078C26.8297 12.6188 27.578 12.7842 28.3124 12.7469C29.2914 12.6972 30.2009 12.3103 30.5969 11.3102C31.146 9.92378 30.1762 8.59259 28.7824 8.28905C28.0578 8.13124 27.2871 8.16917 26.5367 8.15748C25.342 8.13888 25.0554 8.44183 25.0393 9.7571Z" fill="url(#paint0_linear_433_2774)"/>
<path d="M116.015 23.136C116.015 24.9194 116.015 26.6464 116.015 28.3734C116.014 29.7046 115.485 30.2454 114.153 30.2289C113.326 30.2186 112.487 30.2449 111.678 30.1076C110.676 29.9376 110.264 29.1256 110.126 28.1969C110.029 27.5378 110.013 26.8622 110.014 26.1941C110.015 25.8888 110.145 25.5842 110.211 25.2782C110.227 25.2059 110.224 25.1288 110.224 25.0539C110.225 23.6988 110.253 22.3429 110.213 20.9889C110.194 20.3361 110.109 19.6449 109.459 19.267C108.678 18.8128 107.588 19.1898 106.997 20.0967C106.325 21.1283 106.09 22.3219 105.763 23.4857C105.396 24.7871 105.056 26.1083 104.54 27.3515C103.793 29.1544 102.42 30.1147 100.416 30.1334C98.4267 30.1519 96.438 30.268 94.4492 30.3481C93.8066 30.3739 93.162 30.4798 92.5235 30.447C91.0604 30.3718 89.5977 30.261 88.1404 30.1091C87.4498 30.0371 86.8593 29.6849 86.7453 28.9207C86.6474 28.2648 86.562 27.5725 86.6668 26.9289C86.7966 26.1315 87.5385 25.896 88.2193 25.7445C88.6977 25.638 89.202 25.6326 89.6959 25.6183C91.3394 25.5707 92.9885 25.6066 94.6258 25.4817C96.0877 25.3701 97.5526 25.1618 98.8493 24.346C99.9527 23.6518 100.538 22.6125 100.871 21.3871C101.365 19.5694 101.748 17.7352 101.769 15.8375C101.778 15.0373 101.835 14.2377 101.875 13.438C101.986 11.2206 101.995 8.99409 102.539 6.81948C102.973 5.08618 103.703 3.48894 104.748 2.05919C105.363 1.21695 106.342 0.915791 107.315 0.728274C108.373 0.524176 109.433 0.415445 110.531 0.580225C111.689 0.754142 112.872 0.793708 114.046 0.8176C115.061 0.838272 116.079 0.760583 117.095 0.715581C118.053 0.673142 118.997 1.37878 119.198 2.45637C119.36 3.33257 119.285 4.2165 118.823 5.04216C118.464 5.68502 117.868 5.85138 117.249 6.00575C116.968 6.0759 116.67 6.074 116.385 6.13168C115.754 6.25934 115.429 6.64259 115.465 7.309C115.556 9.01493 115.684 10.7189 115.789 12.4241C115.837 13.2045 115.887 13.9857 115.9 14.7672C115.946 17.5379 115.978 20.3088 116.015 23.136ZM110.116 11.596C110.152 11.3046 110.222 11.0124 110.216 10.7219C110.205 10.1489 110.133 9.57732 110.118 9.00432C110.098 8.20045 109.85 7.85632 109.136 7.71232C108.591 7.60246 107.665 8.08902 107.571 8.64137C107.402 9.63597 107.245 10.6478 107.248 11.652C107.25 12.4533 107.774 13.0149 109.022 12.9967C109.66 12.9873 110.04 12.5343 110.116 11.596Z" fill="url(#paint1_linear_433_2774)"/>
<path d="M57.1161 13.4533C57.1161 12.965 57.1281 12.5267 57.114 12.0893C57.0443 9.92606 56.9354 7.76345 56.9122 5.59985C56.9048 4.91294 57.053 4.20341 57.2498 3.54062C57.4802 2.76428 58.0369 2.29866 58.8747 2.17203C59.8788 2.02028 60.8599 1.6641 61.8975 1.95178C62.4004 2.09119 62.823 2.32609 63.0079 2.84017C63.1744 3.30335 63.4905 3.46882 63.9441 3.41938C64.8876 3.31655 65.8284 3.14259 66.7737 3.11438C68.0642 3.07586 69.3578 3.1455 70.6501 3.17039C70.7602 3.17251 70.8699 3.19103 70.9801 3.1947C72.1417 3.23338 73.304 3.25653 74.4648 3.31213C75.6377 3.3683 76.8137 3.4136 77.98 3.54168C79.2611 3.68237 80.0561 4.54995 80.4742 5.68503C81.2018 7.66084 81.3033 9.72583 81.0633 11.8144C80.9913 12.4413 80.9767 13.0753 80.9444 13.7065C80.8305 15.937 80.7147 18.1675 80.6126 20.3986C80.5867 20.9638 80.6385 21.5333 80.6022 22.0974C80.5419 23.036 80.0324 23.6368 79.0964 23.6761C77.9581 23.724 76.8059 23.6916 75.6742 23.5635C74.7576 23.4597 74.3753 22.8834 74.3743 21.9471C74.3723 20.0322 74.3594 18.1171 74.3775 16.2023C74.3983 14.0129 74.4501 11.8238 74.4815 9.63456C74.4844 9.43414 74.4441 9.23194 74.4124 9.03242C74.3428 8.5944 74.2076 8.20616 73.6833 8.15323C72.8782 8.07195 72.4439 8.2213 72.2179 8.8339C71.9794 9.48038 71.7663 10.1689 71.7249 10.8503C71.6476 12.1222 71.6626 13.4038 71.712 14.6785C71.7875 16.6291 71.9817 18.5764 72.0093 20.5268C72.0214 21.3833 71.9993 22.3392 71.2337 22.9739C70.961 23.2 70.6256 23.4103 70.2882 23.4835C69.1676 23.7265 68.0684 23.6789 67.1088 22.9317C66.6591 22.5815 66.4808 22.0988 66.4636 21.524C66.4019 19.4544 66.3247 17.3853 66.244 15.3163C66.1772 13.6036 66.1033 11.891 66.0194 10.179C65.9959 9.69908 65.9729 9.21023 65.8645 8.74586C65.7465 8.24067 65.0412 7.94927 64.3372 8.04084C63.8729 8.10123 63.3964 8.62236 63.3561 9.16078C63.3021 9.88431 63.256 10.6097 63.2435 11.3349C63.197 14.0497 63.1814 16.765 63.1202 19.4793C63.0972 20.4969 62.9934 21.5134 62.9022 22.5281C62.8579 23.0206 62.5126 23.3475 62.0863 23.4561C61.2798 23.6615 60.4557 23.8343 59.6289 23.9119C57.9325 24.071 57.2039 22.9001 57.0067 21.5005C56.7659 19.791 56.9387 18.0914 57.0988 16.3853C57.1881 15.4328 57.1156 14.4647 57.1161 13.4533Z" fill="url(#paint2_linear_433_2774)"/>
<path d="M97.1525 23.4462C95.9339 24.1239 94.683 24.0964 93.3839 23.9518C92.4125 23.8437 91.4162 23.9835 90.4385 23.9097C89.2973 23.8236 88.1499 23.6954 87.0311 23.4594C85.2877 23.0916 84.5271 21.5308 84.5201 19.9595C84.5159 18.9991 84.6966 18.0388 84.7139 17.077C84.7293 16.2241 84.646 15.3682 84.5829 14.5155C84.5421 13.9639 84.4246 13.417 84.4015 12.8654C84.3119 10.7227 84.2103 8.57936 84.1917 6.43554C84.1855 5.71174 84.3206 4.95433 84.5513 4.26736C85.0714 2.7187 86.0842 2.2355 87.5415 2.91797C89.0496 3.62422 90.4816 3.41923 91.9782 3.13672C92.782 2.98501 93.5892 2.80994 94.4019 2.7581C96.2242 2.64186 97.8654 3.68073 98.5589 5.42555C99.38 7.49131 99.3498 9.57097 98.3877 11.5971C98.2007 11.9909 97.8976 12.3265 97.6753 12.7054C97.3231 13.3056 97.3929 13.8878 97.7925 14.4471C98.9723 16.0985 99.3783 17.9717 99.1856 19.96C99.047 21.39 98.4252 22.607 97.1525 23.4462ZM93.1274 17.0372C92.2396 16.9006 91.3548 16.7248 90.4619 16.6527C90.2123 16.6326 89.8757 16.8622 89.6893 17.0757C89.3287 17.4887 89.4709 18.745 89.8621 19.1477C90.4488 19.7518 92.1846 19.9793 92.8932 19.5451C93.8785 18.9413 94.024 17.8103 93.1274 17.0372ZM88.9531 9.38017C89.0692 10.1139 89.5122 10.677 90.1245 10.73C90.9639 10.8026 91.8235 10.7899 92.5775 10.3598C92.8772 10.1888 93.2626 9.80376 93.2506 9.53254C93.2347 9.17764 92.9354 8.74133 92.6313 8.51247C91.8688 7.93857 90.9401 7.9565 90.0489 8.07033C89.336 8.16138 89.0201 8.57693 88.9531 9.38017Z" fill="url(#paint3_linear_433_2774)"/>
<path d="M39.1914 9.1364C39.1165 7.93397 38.9948 6.7855 38.9792 5.63557C38.9572 4.00283 39.446 3.64784 40.757 3.44425C41.3947 3.34521 42.0606 3.39135 42.7108 3.42601C43.6654 3.47689 44.1181 4.18088 44.1878 5.11256C44.2781 6.32146 44.2586 7.53831 44.3158 8.75031C44.4142 10.8316 44.5472 12.9112 44.6409 14.9927C44.6772 15.8007 44.63 16.6124 44.6536 17.4214C44.6643 17.7861 44.7029 18.1665 44.819 18.5084C45.2443 19.7606 46.6114 19.7223 47.5354 19.0317C48.1072 18.6043 48.3981 17.9748 48.4071 17.313C48.4238 16.0875 48.3076 14.8602 48.2454 13.6337C48.237 13.4667 48.2111 13.3002 48.2107 13.1334C48.2076 11.9506 48.2235 10.7676 48.2051 9.58509C48.1858 8.35305 48.1387 7.12139 48.0968 5.88981C48.0413 4.26175 48.5922 3.62297 50.1317 3.45711C51.0243 3.36095 51.9609 3.50977 52.8563 3.67038C53.5221 3.78979 53.8955 4.61751 53.7426 5.2974C53.3003 7.26425 53.3778 9.24975 53.548 11.2378C53.5528 11.2938 53.5522 11.3504 53.5531 11.4066C53.5904 13.6334 53.7064 15.8627 53.6383 18.0862C53.589 19.6933 53.4305 21.3333 52.4302 22.7083C52.082 23.1868 51.6243 23.4389 50.9942 23.4921C49.6881 23.6024 48.3913 23.8229 47.0889 23.9833C45.3366 24.199 43.5946 24.6237 41.8139 24.1581C40.5342 23.8235 39.8792 23.1761 39.7552 21.862C39.6036 20.2552 39.4772 18.6431 39.4242 17.0304C39.3449 14.6173 39.3413 12.2016 39.2975 9.78722C39.2939 9.58746 39.2286 9.38885 39.1914 9.1364Z" fill="url(#paint4_linear_433_2774)"/>
<path d="M120.261 6.91305C123.6 6.98831 126.886 7.05659 130.172 7.14283C131.155 7.16863 131.301 7.3598 131.374 8.6647C131.407 9.26328 131.41 9.86774 131.364 10.4646C131.346 10.6962 131.203 10.9617 131.036 11.131C129.485 12.7086 128.544 14.6582 127.708 16.6698C126.888 18.6416 126.408 20.7122 126.048 22.8123C125.967 23.2852 125.952 23.771 125.927 24.2519C125.888 24.979 125.515 25.3795 124.793 25.3855C123.328 25.3976 121.863 25.3989 120.398 25.3855C119.473 25.3771 119.137 24.9991 119.25 24.0646C119.424 22.6173 119.824 21.2273 120.4 19.8917C121.552 17.2193 122.981 14.7011 124.563 12.2687C124.612 12.1935 124.628 12.0964 124.692 11.9178C124.047 11.9178 123.435 11.9147 122.824 11.9207C122.717 11.9217 122.611 11.9775 122.503 11.9801C120.823 12.0213 119.142 12.0399 117.463 12.1061C116.942 12.1267 116.833 11.8762 116.911 11.4638C117.179 10.0428 117.423 8.62244 117.369 7.16465C117.364 7.04822 117.603 6.81752 117.728 6.81819C118.555 6.8226 119.382 6.8757 120.261 6.91305Z" fill="url(#paint5_linear_433_2774)"/>
<path d="M135.742 25.3891C135.615 25.3891 135.54 25.3909 135.466 25.3888C134.498 25.3611 134.094 24.981 134.295 24.0495C134.591 22.676 134.898 21.2825 135.414 19.9847C136.497 17.2648 137.982 14.7486 139.572 12.2999C139.63 12.2115 139.655 12.1021 139.746 11.8793C139.101 11.8793 138.52 11.8686 137.94 11.8839C137.668 11.8911 137.398 11.971 137.127 11.979C135.595 12.0243 134.062 12.0397 132.531 12.1054C132.007 12.128 131.85 11.9024 131.941 11.4456C132.223 10.0262 132.449 8.60389 132.4 7.14676C132.397 7.03591 132.649 6.81226 132.776 6.81724C133.912 6.86194 135.047 6.95004 136.182 7.0174C136.972 7.06425 137.762 7.12702 138.552 7.13297C140.685 7.14901 142.817 7.13798 144.95 7.13938C145.116 7.13949 145.287 7.12918 145.447 7.16393C146.276 7.34384 146.35 7.45027 146.406 8.6896C146.432 9.27008 146.43 9.85387 146.4 10.4339C146.389 10.6385 146.305 10.8874 146.167 11.0295C144.162 13.0986 143.042 15.6561 142.149 18.3507C141.611 19.9778 141.23 21.6346 141.065 23.3421C141.031 23.6913 140.994 24.0403 140.953 24.3887C140.876 25.0507 140.478 25.3848 139.745 25.3876C138.428 25.3928 137.111 25.3891 135.742 25.3891Z" fill="url(#paint6_linear_433_2774)"/>
<path d="M19.0723 29.8624C17.3242 28.2789 15.2948 27.3311 13.0864 26.747C11.4668 26.3187 9.81255 26.1005 8.14158 26.1878C5.64219 26.3185 3.18905 26.7401 0.842341 27.6599C0.428847 27.822 0.218699 27.7976 0.10092 27.3067C-0.20315 26.0392 0.235657 24.9113 0.677334 23.7785C0.750671 23.5904 0.863207 23.4183 0.952778 23.2363C1.23475 22.6635 1.62354 22.3466 2.30498 22.1983C3.76421 21.8806 5.23021 21.8203 6.69171 21.9188C8.32673 22.0289 9.90569 22.4815 11.4113 23.1573C14.1899 24.4046 16.4907 26.3019 18.5326 28.5449C18.8908 28.9384 19.2112 29.368 19.5352 29.7917C19.6076 29.8865 19.6218 30.0268 19.7128 30.2917C19.4177 30.0949 19.261 29.9904 19.0723 29.8624Z" fill="url(#paint7_linear_433_2774)"/>
<path d="M9.37075 20.7641C8.10043 20.5684 6.87803 20.3771 5.55361 20.1698C5.61694 19.8871 5.69152 19.505 5.78883 19.1288C6.12228 17.84 6.59064 16.621 7.40655 15.5443C7.64634 15.2278 7.85157 15.1783 8.13674 15.3186C9.21183 15.8475 10.3395 16.3009 11.3309 16.9616C12.6196 17.8204 13.9079 18.7368 14.9986 19.8304C17.0191 21.8563 18.4184 24.3039 19.1118 27.1245C19.2041 27.5 19.2232 27.8938 19.1501 28.3093C18.7833 27.6904 18.4332 27.0606 18.0469 26.4545C16.5203 24.0594 14.3631 22.4597 11.7598 21.4581C11.0025 21.1667 10.2003 20.995 9.37075 20.7641Z" fill="url(#paint8_linear_433_2774)"/>
<path d="M14.2497 14.3459C13.6863 12.7135 13.1482 11.1184 12.5659 9.54C12.428 9.16612 12.6167 8.97244 12.8414 8.87618C14.339 8.23465 15.8588 7.66374 17.5949 7.84377C17.0252 10.0653 16.8895 12.3 17.1331 14.5615C17.3738 16.797 17.5927 19.035 17.8267 21.325C16.223 19.2259 15.287 16.7825 14.2497 14.3459Z" fill="url(#paint9_linear_433_2774)"/>
<path d="M11.3554 29.2566C11.3554 30.514 10.7185 31.0664 9.63358 30.7987C8.98754 30.6392 8.54572 29.8931 8.69257 29.2095C8.83922 28.527 9.62194 27.9409 10.2372 28.1075C10.8856 28.2832 11.295 28.5065 11.3554 29.2566Z" fill="url(#paint10_linear_433_2774)"/>
<path d="M15.0691 30.8922C15.4434 31.5811 15.2942 32.1568 14.7168 32.4115C14.1831 32.647 13.5622 32.4022 13.4379 31.8005C13.3754 31.498 13.4926 31.0244 13.7072 30.8253C14.1091 30.4524 14.5999 30.4271 15.0691 30.8922Z" fill="url(#paint11_linear_433_2774)"/>
<path d="M3.40064 31.2442C2.78751 31.3951 2.49129 30.9612 2.38799 30.5823C2.30467 30.2767 2.47289 29.8141 2.68075 29.5374C2.90603 29.2376 3.70878 29.4616 3.99024 29.8233C4.23081 30.1324 4.15388 30.7487 3.82471 31.0284C3.71602 31.1207 3.57318 31.1719 3.40064 31.2442Z" fill="url(#paint12_linear_433_2774)"/>
<defs>
<linearGradient id="paint0_linear_433_2774" x1="19.7529" y1="-3.47575" x2="150.711" y2="42.3702" gradientUnits="userSpaceOnUse">
<stop stop-color="#701EF7"/>
<stop offset="0.552083" stop-color="#981EF7"/>
<stop offset="1" stop-color="#BF1EF7"/>
</linearGradient>
<linearGradient id="paint1_linear_433_2774" x1="19.7529" y1="-3.47575" x2="150.711" y2="42.3702" gradientUnits="userSpaceOnUse">
<stop stop-color="#701EF7"/>
<stop offset="0.552083" stop-color="#981EF7"/>
<stop offset="1" stop-color="#BF1EF7"/>
</linearGradient>
<linearGradient id="paint2_linear_433_2774" x1="19.7529" y1="-3.47575" x2="150.711" y2="42.3702" gradientUnits="userSpaceOnUse">
<stop stop-color="#701EF7"/>
<stop offset="0.552083" stop-color="#981EF7"/>
<stop offset="1" stop-color="#BF1EF7"/>
</linearGradient>
<linearGradient id="paint3_linear_433_2774" x1="19.7529" y1="-3.47575" x2="150.711" y2="42.3702" gradientUnits="userSpaceOnUse">
<stop stop-color="#701EF7"/>
<stop offset="0.552083" stop-color="#981EF7"/>
<stop offset="1" stop-color="#BF1EF7"/>
</linearGradient>
<linearGradient id="paint4_linear_433_2774" x1="19.7529" y1="-3.47575" x2="150.711" y2="42.3702" gradientUnits="userSpaceOnUse">
<stop stop-color="#701EF7"/>
<stop offset="0.552083" stop-color="#981EF7"/>
<stop offset="1" stop-color="#BF1EF7"/>
</linearGradient>
<linearGradient id="paint5_linear_433_2774" x1="19.7529" y1="-3.47575" x2="150.711" y2="42.3702" gradientUnits="userSpaceOnUse">
<stop stop-color="#701EF7"/>
<stop offset="0.552083" stop-color="#981EF7"/>
<stop offset="1" stop-color="#BF1EF7"/>
</linearGradient>
<linearGradient id="paint6_linear_433_2774" x1="19.7529" y1="-3.47575" x2="150.711" y2="42.3702" gradientUnits="userSpaceOnUse">
<stop stop-color="#701EF7"/>
<stop offset="0.552083" stop-color="#981EF7"/>
<stop offset="1" stop-color="#BF1EF7"/>
</linearGradient>
<linearGradient id="paint7_linear_433_2774" x1="19.7529" y1="-3.47575" x2="150.711" y2="42.3702" gradientUnits="userSpaceOnUse">
<stop stop-color="#701EF7"/>
<stop offset="0.552083" stop-color="#981EF7"/>
<stop offset="1" stop-color="#BF1EF7"/>
</linearGradient>
<linearGradient id="paint8_linear_433_2774" x1="19.7529" y1="-3.47575" x2="150.711" y2="42.3702" gradientUnits="userSpaceOnUse">
<stop stop-color="#701EF7"/>
<stop offset="0.552083" stop-color="#981EF7"/>
<stop offset="1" stop-color="#BF1EF7"/>
</linearGradient>
<linearGradient id="paint9_linear_433_2774" x1="19.7529" y1="-3.47575" x2="150.711" y2="42.3702" gradientUnits="userSpaceOnUse">
<stop stop-color="#701EF7"/>
<stop offset="0.552083" stop-color="#981EF7"/>
<stop offset="1" stop-color="#BF1EF7"/>
</linearGradient>
<linearGradient id="paint10_linear_433_2774" x1="19.7529" y1="-3.47575" x2="150.711" y2="42.3702" gradientUnits="userSpaceOnUse">
<stop stop-color="#701EF7"/>
<stop offset="0.552083" stop-color="#981EF7"/>
<stop offset="1" stop-color="#BF1EF7"/>
</linearGradient>
<linearGradient id="paint11_linear_433_2774" x1="19.7529" y1="-3.47575" x2="150.711" y2="42.3702" gradientUnits="userSpaceOnUse">
<stop stop-color="#701EF7"/>
<stop offset="0.552083" stop-color="#981EF7"/>
<stop offset="1" stop-color="#BF1EF7"/>
</linearGradient>
<linearGradient id="paint12_linear_433_2774" x1="19.7529" y1="-3.47575" x2="150.711" y2="42.3702" gradientUnits="userSpaceOnUse">
<stop stop-color="#701EF7"/>
<stop offset="0.552083" stop-color="#981EF7"/>
<stop offset="1" stop-color="#BF1EF7"/>
</linearGradient>
</defs>
</svg>
